<svg width="14" height="14" viewBox="0 0 14 14" fill="none" xmlns="http://www.w3.org/2000/svg">
<path d="M11.8412 1.5V3.83333C11.8412 4.01743 11.692 4.16667 11.5079 4.16667H9.17456M2.16667 12.5V10.1667C2.16667 9.98257 2.31591 9.83333 2.5 9.83333H4.83333M1.54255 7.6875C1.51447 7.46228 1.5 7.23283 1.5 7C1.5 3.96243 3.96243 1.5 7 1.5C8.78439 1.5 10.4074 2.34975 11.4214 3.66667M12.4574 6.3125C12.4855 6.53772 12.5 6.76717 12.5 7C12.5 10.0376 10.0376 12.5 7 12.5C5.21561 12.5 3.59258 11.6502 2.57856 10.3333" stroke="rgba(0,0,0,0.366)" stroke-width="1.5" stroke-linecap="round" stroke-linejoin="round"/>
</svg>
